<svg id="Layer_1" data-name="Layer 1" xmlns="http://www.w3.org/2000/svg" viewBox="0 0 299.63 244.4"><defs><style>.cls-1,.cls-3{fill:none;}.cls-1{stroke:#1d1d1b;stroke-width:3.6px;}.cls-1,.cls-5{stroke-miterlimit:10;}.cls-2{fill:#804996;}.cls-4{fill:#fff;}.cls-5{fill:#ee7243;stroke:#ee7243;stroke-width:0.9px;}.cls-6{font-size:14.39px;fill:#575756;font-family:Montserrat-Medium, Montserrat;font-weight:500;letter-spacing:0.25em;}.cls-7{letter-spacing:0.24em;}.cls-8{letter-spacing:0.24em;}</style></defs><title>DM-catering new Logo</title><path class="cls-1" d="M217.15,343.22" transform="translate(-146.76 -300.25)"/><path class="cls-2" d="M446.29,415.19c-2.46-61.62-52.19-111.81-113.8-114.8a119.68,119.68,0,0,0-106.63,54.69,4.66,4.66,0,0,0,4.44,7.17c.24,0,.47-.06.72-.09l.87-.11,4.1-.56c12.18-1.73,14.75-3.22,16.08-2,3.47,3.09-3.29,11.37-1.81,26,.46,4.66,1,9.58,4,10.85,4.44,1.87,10.78-5.9,15.44-4.12,1.18.45,3.5,1.21,3.95,13.24.58,15.77-.36,22.82,4.57,22.84,3.46,0,7.45-7.33,11.12-6s2.14,10.68,4.28,16.82C298,451.61,311.8,457,314.16,457.92a38.77,38.77,0,0,0,36.52-5.12c3.85-2.92,5.38-6.62,6.86-6.86,2.7-.43.34,3,1.13,7.79.67,4.09,1.33,8.06,3.82,9.14,2.77,1.21,7.5,1.5,9.59-2.09,2.82-4.82-.42-12,2.19-14.26,2.32-2,7.81-1.12,10.27,1.89,2.85,3.47,0,7.57,0,16.37,0,9,3.58,15.69,5.8,15.69,3.61,0,4.57-6.59,4.48-15.31s-.24-12.29,2.08-14.09c1.88-1.42,6.82.07,7.4,3.72.9,5.69.9,5.69-2.25,22.53-1.85,9.84-3.24,17-3.81,26.64,0,.67-.08,1.32-.09,1.93,0,.31,0,.61,0,.92s0,.57,0,.86c0,.47,0,.9,0,1.33a3.58,3.58,0,0,0,5.86,2.61A119.7,119.7,0,0,0,446.29,415.19Zm-118,35.88a31,31,0,1,1,31-31A31,31,0,0,1,328.34,451.07Z" transform="translate(-146.76 -300.25)"/><path class="cls-3" d="M361.34,422.09a31,31,0,1,1-31-31A31,31,0,0,1,361.34,422.09Z" transform="translate(-146.76 -300.25)"/><g id="particles"><circle class="cls-4" cx="269.36" cy="63.33" r="4.95"/><ellipse class="cls-4" cx="268.4" cy="362.39" rx="3.49" ry="1.12" transform="translate(-291.99 -117.49) rotate(-30)"/><ellipse class="cls-4" cx="336.62" cy="379.16" rx="1.12" ry="3.49" transform="translate(-316.51 104.65) rotate(-51.31)"/><ellipse class="cls-4" cx="352.6" cy="335.22" rx="3.49" ry="1.12" transform="translate(-267.13 -79.04) rotate(-30)"/><ellipse class="cls-4" cx="219.44" cy="76.24" rx="3.49" ry="1.12"/><ellipse class="cls-4" cx="378.42" cy="403.25" rx="3.49" ry="1.12" transform="translate(-297.68 -57.01) rotate(-30)"/><ellipse class="cls-4" cx="402.35" cy="411.93" rx="3.49" ry="1.12" transform="matrix(0.87, -0.5, 0.5, 0.87, -298.81, -43.88)"/><ellipse class="cls-4" cx="265.85" cy="133.06" rx="3.49" ry="1.12"/><ellipse class="cls-4" cx="284.17" cy="342.67" rx="3.49" ry="1.12" transform="translate(-304.49 96.19) rotate(-57.27)"/><ellipse class="cls-4" cx="266.51" cy="342.67" rx="3.49" ry="1.12" transform="translate(-169.31 -281.44) rotate(-3.88)"/><ellipse class="cls-4" cx="288.77" cy="326.48" rx="1.12" ry="3.49" transform="translate(-218.76 -218.34) rotate(-14.37)"/><ellipse class="cls-4" cx="305.08" cy="328.73" rx="1.12" ry="3.49" transform="translate(-187.63 -256.91) rotate(-7.62)"/><ellipse class="cls-4" cx="294.98" cy="366.5" rx="3.49" ry="1.12" transform="translate(-319.51 15.68) rotate(-45)"/><ellipse class="cls-4" cx="312" cy="353.19" rx="3.49" ry="1.12" transform="translate(-169.92 -278.35) rotate(-3.88)"/><ellipse class="cls-4" cx="344.51" cy="361.64" rx="3.49" ry="1.12" transform="translate(-170.42 -276.13) rotate(-3.88)"/><ellipse class="cls-4" cx="356.09" cy="392.08" rx="3.49" ry="1.12" transform="translate(-278.38 298.37) rotate(-70.71)"/><ellipse class="cls-4" cx="375.11" cy="354.33" rx="3.49" ry="1.12" transform="translate(-169.85 -274.08) rotate(-3.88)"/><ellipse class="cls-4" cx="393.99" cy="369.87" rx="3.49" ry="1.12" transform="translate(-170.86 -272.76) rotate(-3.88)"/><ellipse class="cls-4" cx="391.85" cy="390.94" rx="3.49" ry="1.12" transform="translate(-172.29 -272.86) rotate(-3.88)"/><ellipse class="cls-4" cx="418.78" cy="385.07" rx="3.49" ry="1.12" transform="translate(-171.83 -271.05) rotate(-3.88)"/><ellipse class="cls-4" cx="428.37" cy="406.35" rx="1.12" ry="3.49" transform="translate(-240.77 -169.09) rotate(-15.71)"/><ellipse class="cls-4" cx="375.11" cy="422.94" rx="3.49" ry="1.12" transform="translate(-330.82 205.82) rotate(-56.89)"/><ellipse class="cls-4" cx="324.86" cy="329.87" rx="3.49" ry="1.12" transform="translate(-168.31 -277.53) rotate(-3.88)"/><ellipse class="cls-4" cx="331.9" cy="352.96" rx="1.12" ry="3.49" transform="translate(-297.95 15.92) rotate(-42.41)"/><ellipse class="cls-4" cx="314" cy="382.7" rx="3.49" ry="1.12" transform="translate(-171.91 -278.14) rotate(-3.88)"/></g><path class="cls-5" d="M154.13,425.78c.75.36.4.89-.4.83-2-.18-6.93-2-6.41-5.64,0-.18-.11-.65-.11-1,0-14.49,33.63-18.64,43.27-10.69a12.63,12.63,0,0,1,4.5,10c0,12.7-12.23,22.2-23.95,22.2-3.92,0-7.78-.95-10.44-3-.29.41-2.54,5.34-4.1,5.34-2.94,0-3.4-4.63-3.4-5.52a40.67,40.67,0,0,1,.52-6.36,3.83,3.83,0,0,0-.46-1.66,1.27,1.27,0,0,1,.4-1.19c.58-.41,2-.89,2.43-.59.23.18.23.48-.12,1.31a2.77,2.77,0,0,0-.46,1.9c0,1.36,3.75,4.45,4,4.51,1-2.49,4.33-9.8,5.88-13.12.75-1.55.52-2.14.41-2.44.34-2,6.11-9.2,9.11-9.2.7,0,3.12.59,3.41,2.14.06.77-.29.18-.69.18-5.37,0-14,18.28-16.39,23.63,8.37,6.35,20.6.23,26.37-6.95,8.54-10.63,6.17-23.51-9.35-24-12.46-.29-28.85,7-28.85,15.32C149.28,424.77,152.8,425.13,154.13,425.78Zm1,8.19a39.06,39.06,0,0,0,.46,6.89c.69,3.68,2.77-2.55,3.06-3.26C157.76,436.82,156.15,434.92,155.11,434Z" transform="translate(-146.76 -300.25)"/><path class="cls-5" d="M253.19,413c-1.78,7.59-5.3,12.11-6.11,20.24-.64,6.77,2.08,6.83,5.94,3.74a40.08,40.08,0,0,0,6.12-6.47c.29-.42,1.09,0,.69.47a38.17,38.17,0,0,1-7.56,8.14c-2.54,2-6.92,2.55-7.9-1.43-1.68-6.11,3.92-19.41,5.59-23.86,1-2.62-.34-3.86-2.65-1.79-3.12,2.74-7.21,8.08-10.9,13.66a108.46,108.46,0,0,0-6.93,11.93c-1.15,2.62-2.65-.95-2.36-1.6,2.65-7.06,5.25-25.71-1.39-25.71-3,0-8.65,4.46-14.25,9.74-1.44,3.5-5.65,14.55-10.32,20.6-5.43,7.07-11.72,3.56-7.51-3.32,3.52-5.7,12.41-15,15.81-18.17l2.2-7.66a12.72,12.72,0,0,1-7.5,3.27c-.87.06-.75-.89.11-.95,3.29-.36,7.33-4,9.06-8.26.29-.89,4-1.12,3.75,0l-4,10.16c4.5-3.92,8.77-6.89,11.25-7,7.61-.47,9.11,5.82,8.48,11.4a74,74,0,0,1-3,12.76c-.17.6-1,3,.17,1,2-3.08,3.58-6.23,5.71-9.55a108.93,108.93,0,0,1,10.56-14.19C249.91,406.25,254.64,407.08,253.19,413Zm-53.82,27c2.77-3,7.5-13,8.94-17a136.89,136.89,0,0,0-12.23,14C192.33,442.11,194.87,444.78,199.37,440Z" transform="translate(-146.76 -300.25)"/><path class="cls-5" d="M191.76,468.51c-.31,9.61-16.17,19.31-23.91,20.06-2.48.25-1.7-2.41.39-2.57a23.77,23.77,0,0,0,19.34-13.18c1.85-3.82,2.16-8.46-2.09-9.2-8.12-1.33-28,14.17-33.65,33.16-3.33,10.86,1.7,15.83,9.9,15.91,9.21.33,22.59-4.64,29.78-15.5.54-.83,1.47.08,1.09.75-8.05,11.85-20.89,17-30.87,16.83-9.44-.09-16.71-6.06-13.69-19.49C152,478,170.4,459.14,185.57,461.63,189.82,462.29,191.83,465.19,191.76,468.51Z" transform="translate(-146.76 -300.25)"/><path class="cls-5" d="M189.12,508.05c-5.72-7.79,11.92-20.23,17.72-21.72,2.32-.66,5.73-.83,7.74.66a3,3,0,0,1,1.31,2.24c0,.58-.08.58-.46.42-.85-1.41-2.4-1.58-3.87-1.58-4,0-9.44,3.32-13.46,7.13-2.17,2.16-8.59,10-6.19,13.68,1.08,1.66,4.87-1.33,6-2.24a101.71,101.71,0,0,0,7.5-7.29c1.08-1.25,7-8.21,7.66-8.21s3.79.66,3.09,2a31.62,31.62,0,0,0-4.64,12c-.46,3.56,1.09,5.47,3.56,4.06s8.36-6.71,11.53-11.52a.57.57,0,1,1,.93.66c-1.4,2.9-6.19,8.37-10.06,11.36-2.48,2-8.2,4-9.75-1-.69-2.23.23-7.21,1.24-10.11-1.32.66-8.67,12.27-14.85,12.27A6.79,6.79,0,0,1,189.12,508.05Z" transform="translate(-146.76 -300.25)"/><path class="cls-5" d="M244.52,487.57a62.05,62.05,0,0,1-8.75,1.41c-1,2-1.93,3.4-2.16,4.15-2.32,5-4.41,9.37-4.64,12-.55,3.56,1,5.47,3.55,4.06a48.56,48.56,0,0,0,11.53-11.52.57.57,0,1,1,.93.66c-1.47,2.9-6.19,8.37-10.06,11.36-2.47,2-8.2,4-9.74-1-.62-1.9.69-6.38,2.32-10.19-.7.91-1.4,2.15-3,4.14-.77.91-1.55-.16-.85-1.16,2.71-3.56,4.79-6.63,6-8.54,0-.16.7-1.49,1.71-3.48a7.9,7.9,0,0,1-1.78.17,1.23,1.23,0,0,1-1.09-1.83c.62-1.41,2.63-1.41,4.1-1.49.08-.17.16-.17.31-.17l3.87-7.7c1.94-3.57,2.09-4.4,3.17-4.56s2.63.08,3.1.82c.69,1-.23,2.66-.7,3.4s-1.16.75-1.62,1.74l-3.72,7,1-.08a47.53,47.53,0,0,1,7.27-.59C246.14,486.16,247.76,486.75,244.52,487.57Z" transform="translate(-146.76 -300.25)"/><path class="cls-5" d="M250.32,501.67c-1.16.08-1.7-1.08-.54-1.16,2.47-.25,6.8-2.9,9.67-5.39,1.31-1.08,3.63-3.57,3.48-5.39-.08-2.32-2.86-1.08-3.95-.5-4.56,2.24-11.22,9.12-12.92,15.17-1.93,7,4,7.05,9.05,4.89a30.61,30.61,0,0,0,13.47-11.52c.31-.41.69-.41.85-.25.38.17.38.58.07,1A29.7,29.7,0,0,1,256.12,511c-7.89,3.4-17.79,0-13.54-10.44,2.32-5.64,14.31-16.5,20.12-14.43,3.17,1.16,2.7,5.39,1.23,7.71C261.15,498.19,253.8,501.34,250.32,501.67Z" transform="translate(-146.76 -300.25)"/><path class="cls-5" d="M267.26,499.68A68.33,68.33,0,0,0,274.45,488c-1.16-.17-1.93-1-1.62-2,.7-2.49,3.95-5.89,6.27-7.05s3.86-2,1.78,2.07l-3,5.14a64.15,64.15,0,0,0,8.12.17c4.64-.25,2.79,2.57.08,5.89a46.64,46.64,0,0,0-7,12.35c-1.24,3.73-.08,6.05,2.47,4.64A47,47,0,0,0,293,497.69a.6.6,0,0,1,1,.66c-1.47,2.9-6.19,8.37-10.06,11.36a10.48,10.48,0,0,1-6,2.32,3.52,3.52,0,0,1-3.72-3.07c-1.39-5.39,3.72-11.44,6.58-14.59,1.16-1.41,4.72-5.06-.62-6a17.17,17.17,0,0,0-3.48-.41c-2.79,4.23-5.42,8.54-8.51,12.6C267.41,501.67,266.1,501.25,267.26,499.68Z" transform="translate(-146.76 -300.25)"/><path class="cls-5" d="M296.27,491.89c.85-2.58,1.62-4.65,2.71-4.9,1-.08,2.32.17,2.71,1,.46,1-.39,2.57-1.55,5.14-2.32,5-4.41,9.37-4.64,12-.55,3.56,1,5.47,3.55,4.06a48.56,48.56,0,0,0,11.53-11.52.57.57,0,1,1,.93.66c-1.47,2.9-6.19,8.37-10.06,11.36-2.47,2-8.2,4-9.74-1-.62-1.9.69-6.38,2.32-10.19-.7.91-1.4,2.15-3,4.14-.77.91-1.55-.16-.85-1.16,2.71-3.56,4.79-6.63,5.95-8.54A1.49,1.49,0,0,1,296.27,491.89Zm6.19-9.21c-1.39,0-3.33,0-3.33-1.74,0-.41,4.18-3.73,4.64-4.14,3.18-2.74,1.24.16,1.24,1.82C305,479.53,303.23,482.68,302.46,482.68Z" transform="translate(-146.76 -300.25)"/><path class="cls-5" d="M322.5,494.46c-4.41,4.31-10.91,15.25-12.38,16.16-.78.42-4.88,2.4-4.1.83.62-1.66,5.18-15.83,6.73-20.39.39-1,.08-4.9,4.1-3.73,1.24.33,1.16,1.07.54,2.4-1.93,4.56-4.41,11.94-5.34,14.59,3.25-4.31,10-12.1,14.24-15.67,4.48-3.56,7.73-3,6.19,2-.86,2.82-2.63,5.39-3.64,8.21a28,28,0,0,0-1.78,6.3c-.46,3.56,1.08,5.47,3.56,4.06a47.48,47.48,0,0,0,11.53-11.52.6.6,0,0,1,1,.66c-1.47,2.9-6.19,8.37-10.06,11.36a9.39,9.39,0,0,1-6.18,2.07c-8.13-.83-1.78-14,.15-17.82C328.45,491.3,328.14,489.23,322.5,494.46Z" transform="translate(-146.76 -300.25)"/><path class="cls-5" d="M350.58,532.34c-2.86,4.56-7.43,10.12-12.69,9.12a7.17,7.17,0,0,1-1.55-.58c-4.87-2.57-2.55-7.54,1.55-12.68,3.87-4.81,11.92-10.53,16.94-14.1a188,188,0,0,0,7.74-19.31c-2.09,2.73-5,6.46-6.19,7.79-2.86,3.4-7.35,8.29-11.22,8.29a6.77,6.77,0,0,1-5-2.82c-5.64-7.79,11.92-20.23,17.72-21.72,2.24-.66,5.72-.83,7.73.66a3.07,3.07,0,0,1,1.4,2.24c0,.58-.24.58-.62.42-.78-1.41-2.32-1.58-3.79-1.58-4,0-9.44,3.32-13.39,7.13-2.32,2.16-8.66,10-6.19,13.68.86,1.33,4.49-.83,7.59-3.4A93.07,93.07,0,0,0,363.42,492c.7-1.91,5.57.33,5.18,1.24-1.93,4.56-4.79,10.7-7.65,17.25,2-1.17,8.81-7.13,13.61-13.1,2-2.49,2.4-.5.39,2-3.41,4.14-12.53,12.93-15.55,14.75C356.07,521.4,353,528.28,350.58,532.34Zm-10.91-2.82c-3.09,3.32-5,8.29-2.55,9.7.69.42,1.85.17,3.71-1.41,5.88-5.22,9.28-13.51,12.53-20.56A131.58,131.58,0,0,0,339.67,529.52Z" transform="translate(-146.76 -300.25)"/><text class="cls-6" transform="translate(0.4 240.61)">SN<tspan class="cls-7" x="27.82" y="0">A</tspan><tspan x="41.81" y="0">C</tspan><tspan class="cls-8" x="55.82" y="0">K</tspan><tspan x="69.55" y="0">S &amp; CHOPS</tspan></text></svg>